
<svg xmlns="http://www.w3.org/2000/svg" id="Layer_1" viewBox="0 0 269.5 98.8" width="200px" height="200px"><style>.st0{fill:url(#polygon16_1_)}.st1{fill:#0071b9}.st2{fill:url(#polygon25_1_)}.st3{fill:#1d2c5e}.st4{fill:url(#polygon36_1_)}.st5{fill:url(#polygon43_1_)}.st6{fill:#312370}.st7{fill:#21386e}.st8{fill:url(#polygon56_1_)}.st9{fill:url(#path69_1_)}.st10{fill:url(#polygon78_1_)}.st11{fill:#ffcb05}.st12{fill:#7d7f68}.st13{fill:#c7a008}.st14{fill:#3c5aa6}.st15{fill:#3567b0}.st16{fill:#1e2d5f}.st17{fill:#3466af}.st18{fill:url(#path183_1_)}.st19{fill:url(#path196_1_)}</style><linearGradient id="polygon16_1_" gradientUnits="userSpaceOnUse" x1="426.751" y1="-632.71" x2="416.733" y2="-614.042" gradientTransform="matrix(1 0 0 -1 -413.451 -579.186)"><stop offset="0" stop-color="#0070b6"/><stop offset="1" stop-color="#1d2c5e"/></linearGradient><path id="polygon16" class="st0" d="M0 36.6l12 20.3 4.8-4.6L3.7 32.8z"/><path id="polygon18" class="st1" d="M178.6 20.6l-.5 2.7 5.7-1.9-.7-3.3z"/><linearGradient id="polygon25_1_" gradientUnits="userSpaceOnUse" x1="548.926" y1="-594.572" x2="561.641" y2="-580.948" gradientTransform="matrix(1 0 0 -1 -413.451 -579.186)"><stop offset="0" stop-color="#0070b6"/><stop offset="1" stop-color="#1d2c5e"/></linearGradient><path id="polygon25" class="st2" d="M145 2.3l-18.5 21.2 5.4-1.5 17.6-22z"/><path id="polygon27" class="st3" d="M244.1 31.3l4.5-2.4-1.3 11.4z"/><path id="polygon29" class="st3" d="M215.8 38.6l4.1.9L225 37l-4.5-1.7z"/><linearGradient id="polygon36_1_" gradientUnits="userSpaceOnUse" x1="493.453" y1="-617.286" x2="491.937" y2="-604.548" gradientTransform="matrix(1 0 0 -1 -413.451 -579.186)"><stop offset="0" stop-color="#0070b6"/><stop offset="1" stop-color="#1d2c5e"/></linearGradient><path id="polygon36" class="st4" d="M76.6 26.6l.6 13.1 5.7-2.2-1.7-13.4z"/><linearGradient id="polygon43_1_" gradientUnits="userSpaceOnUse" x1="632.347" y1="-614.834" x2="631.742" y2="-603.336" gradientTransform="matrix(1 0 0 -1 -413.451 -579.186)"><stop offset="0" stop-color="#125d9e"/><stop offset="1" stop-color="#1d2c5e"/></linearGradient><path id="polygon43" class="st5" d="M220.2 22.6l-4.5 2.5.1 13.5 4.6-2.3 1.4-6.6z"/><path id="polygon45" class="st6" d="M219.6 39.5l-5 44.4 8-1.6 1.5-45.2z"/><path id="polygon47" class="st7" d="M229.3 86l.2 6 15.3 4.9 4.6-2.4-15.1-11.7-15.2-1.3-4.5 2.4z"/><path id="polygon49" class="st7" d="M172.5 75.4l3.7-2 2.5 4.4 3.5-1.9.7 5.8 22.3 4 4.4-2.5-30.7-18.7-21.8 3.7-4.2 4.1z"/><linearGradient id="polygon56_1_" gradientUnits="userSpaceOnUse" x1="589.912" y1="-598.261" x2="576.568" y2="-619.489" gradientTransform="matrix(1 0 0 -1 -413.451 -579.186)"><stop offset="0" stop-color="#125d9e"/><stop offset="1" stop-color="#1d2c5e"/></linearGradient><path id="polygon56" class="st8" d="M165.4 20.8l-4.5 2.5-8 49 4.5-2.4 7.7-27.5z"/><path id="polygon58" class="st3" d="M129.8 27.4l-3.6 1.9.3 1.2 8.5-5.4-3.7-4-4.8 2.4z"/><path id="polygon60" class="st7" d="M139.5 85.3l-36.3-18 4.5-3.5 36.3 19z"/><path id="polygon62" class="st3" d="M106.6 18.3l-5.5 10.4 5.8-1.7 4.2-11.2z"/><linearGradient id="path69_1_" gradientUnits="userSpaceOnUse" x1="471.821" y1="-632.309" x2="480.919" y2="-650.202" gradientTransform="matrix(1 0 0 -1 -413.451 -579.186)"><stop offset="0" stop-color="#105fa1"/><stop offset="1" stop-color="#1d2c5e"/></linearGradient><path id="path69" class="st9" d="M56.6 61.4L52 64.6s1 5.2 2.3 8.8c1.3 3.6 4.3 6.5 4.3 6.5 2 1.9 4.3 3.3 7 4.1 5.1 1.5 10.9.5 15.9-2.7 1.3-.8 3.1-2.1 4.2-3.2-4.9 3-29.1-16.7-29.1-16.7z"/><path id="polygon71" class="st3" d="M81.5 38.7l4.2 46.7 17.4-2.5 4.6-2.4-21.5-44.6-4.4 1.5-4.6 2.3z"/><linearGradient id="polygon78_1_" gradientUnits="userSpaceOnUse" x1="437.492" y1="-626.202" x2="448.022" y2="-650.612" gradientTransform="matrix(1 0 0 -1 -413.451 -579.186)"><stop offset="0" stop-color="#105fa1"/><stop offset="1" stop-color="#1d2c5e"/></linearGradient><path id="polygon78" class="st10" d="M16.5 54.9l19.4 43.9 18.4-5.9 4.5-3-38.2-40-4.8 2.9-3.8 4.1z"/><path id="path80" class="st3" d="M208.4 75.6l.3 2.2c1.6-.2 3.2-.4 4.7-.9 1.7-.6 5.3-2.2 6.6-3.4-.6.2-9 2.4-11.6 2.1"/><path id="path82" class="st3" d="M143.3 64.4l.7 3.5c3.7-.6 6.9-1.9 10.1-3.8 2-1.2 4.1-2.9 4.8-3.4-.5.3-15.6 3.7-15.6 3.7z"/><g id="g84" transform="translate(-5.451 -1.686)"><path id="path86" class="st11" d="M46.4 96.3L45 93.1l-18.4-41-.4-.8-.8.4-.6.3-3.3 1.6c-.5-.8-1.3-2.2-1.8-3.1L12.3 38l-1.9-3.3 3.2-2c3-1.9 6.4-3.7 10.2-5.3 7.4-3.1 14.9-4.8 21.8-4.8 2.3 0 4.5.2 6.5.5 3.4.4 6.6 1.5 9.2 3.3 3.9 2.2 7 5.6 8.7 9.6 1.4 3.3 1.7 7.2.8 11.2l-.5 2.4 2-1.4c1.3-1 2.7-1.8 4.2-2.4 2.6-1.1 5.3-1.7 8-1.7 2.6 0 5 .5 7.2 1.5l1.4.6-.1-1.6-.6-6.7-.1-1.1-1 .3-3.1.8-.5-11.4 22.8-7.3-.2 8.9 1.7.4 5-9.5 14.9 13.2.6.6.6-.6c2-1.9 4.5-3.5 7.2-4.6l1.1-.5-.8-1-2.7-3.3L155 3.1l9 13.4-13.7 7.4-3 1.6 3.5.1c6.5.1 12.3 2.9 16.2 7.7l1.4 1.8.9 1.1-1.5 1.6-1 1.1-3.4 3.7-.6.7.7.6 3.2 2.9 1.2 1.1.3-1.6 1.2-7.6.3-2 .3-2 1.8-11.3h17l.1-.8.3-1.9H204l3.6 22.6.2 1.5 1.2-.9c1.5-1.1 3.1-1.9 4.8-2.6 2.3-.9 4.6-1.3 7-1.3 2.8 0 5.5.6 7.8 1.9.1 0 .1.1.3.2l1.1.4.1-1.2.3-2.5.1-.8-.8-.2-3-.7-.1-11.8 22.9 5 1.7 8.5h1.8l1.8-7.3 19.1 4.6L254.3 95l-13.9-4.4-.1-5.4v-.8l-.8-.1-13.9-2 .8-7.1.2-1.7-1.5.8c-.7.4-1.4.7-2.1.9-2.3.9-4.6 1.3-6.9 1.3-.7 0-1.3 0-2-.1l-1.2-.1.2 1.2 1 6.2-20.3-3.6-1.1-9.2-.3-3-1.4 2.6-2.3 4.5-4.3-7.9-1.3-2.4-.4 2.7-.9 6.1-17.8-2.8 1.4-8.4.3-1.9-1.7 1c-2.9 1.7-6.3 3.1-10.2 4-1.4.3-2.8.6-4.3.7l-.8.1V83l-35-17.3-1.3-.6v16.3l-15.7 2.3-.7-7.1-.2-1.9-1.4 1.3c-2.1 2-4.4 3.6-6.9 4.7-2.6 1.1-5.3 1.7-7.9 1.7-2.7 0-5.2-.6-7.5-1.6-4.2-2-7.3-5.7-8.6-10.4-.6-2.2-.8-4.5-.5-6.9l.3-2.5-1.8 1.8c-1.3 1.2-2.7 2.4-4.2 3.5l-.5.4.2.6 5.3 20.2.9 3.6-3.5 1.1-9.9 3.2-3.4.9zM50.8 42c-.5 0-1 0-1.6.1l-.7.1-1 .2.3 1 .2.6 2.8 9.3.3.9.4 1.3 1-.9.7-.6c2.8-2.5 3.7-5 3.1-8.2-.4-1.9-1.8-2.8-2.7-3.2-.6-.4-1.7-.6-2.8-.6zm76.2.3l-1.8 1.7-4.7 4.5-1 1 1.3.5 5 1.9 1.5.6-.3-1.6c-.4-2.1-.5-4.2-.3-6.2l.3-2.4zm20.4-5.2c-1.9 0-3.8.8-5.1 2.3-2 2.2-2.4 5.5-1 8.1l.4.7.6 1.1.9-1 .6-.6 6.9-7.8.5-.6.9-1-1.2-.5-.8-.3c-1-.2-1.8-.4-2.7-.4z"/></g><path id="path88" class="st12" d="M152.4 47l-.2.2c.1 0 .2-.1.2-.2z"/><path id="polygon90" class="st12" d="M158.4 41.6l3.4-3.7-1.2 1.2V39l-1 1.1-3.4 3.6 3.2 2.9.6-3.6 1.6 1.4z"/><path id="polygon92" class="st12" d="M158.4 41.6l3.2 2.8 1.2-7.6-1 1.1z"/><path id="path94" class="st12" d="M115.7 47.5z"/><path id="path96" class="st13" d="M134.7 50.7c.3.3 0 .1.3.3l2.1-1.5c-.3-.2-.6-.5-.9-.7-3-2.8-2.2-9-.3-12.4-5.2 4.2-4.9 10.6-1.2 14.3"/><path id="path98" class="st13" d="M160 54.2c-3.5 2.9-7.4 4.7-12.6 6-1.1.3-2.3.5-3.3.5-8.3.8-15.2-3-17.8-9.1-.3-.7-.6-1.5-.8-2.3-1.2-5.2-.2-9.8 2.4-13.5.3-.4.5-.7.8-1-.1.1-.3.2-.4.3-1 .9-1.9 1.8-2.6 2.9-2.6 3.6-3.6 8.3-2.4 13.5.2.8.4 1.6.8 2.3 2.6 6.2 9.6 10 17.8 9.2 1.1-.1 2.2-.3 3.4-.6 5.2-1.3 9.2-3.1 12.6-6 .8-.7 1.7-1.5 2.5-2.3l-.1-.1c-.2.1-.3.1-.3.2"/><path id="polygon100" class="st13" d="M101.7 38.5l9.2-13-.4-.3-8.9 12.5z"/><path id="polygon102" class="st13" d="M162.8 36.8l-1.2 7.6L160 43l-.6 3.6-3.2-2.9 3.4-3.6 1-1.1v.1l1.2-1.2z"/><path id="polygon104" class="st13" d="M151.4 15.4l3.2-1.4-5.9-7.6-1.9 2.8z"/><path id="path106" class="st13" d="M61.8 34.2c-15-18.2-41.9-8.4-51.5.1l.4.7c2.2-1.3 4.6-2.4 7-3.5 9.6-4.1 18.8-5.3 26.1-4 2.6.3 5.3 1.1 7.7 2.7 3.3 1.9 5.8 4.5 7.3 7.9 2.6 6 .3 14-5.8 20.6 7.7-7.1 13-13.9 8.8-24.5z"/><path id="path108" class="st13" d="M92.3 55.4c-.1-.3-.1-.7-.2-1-.8-3-2.6-5.4-5-7-3.8-2.6-9.2-3.1-14.5-.9-2.8 1.2-5.2 3.1-7.2 5.3 1.5-1.3 3.2-2.3 5-3.1 5.3-2.3 10.7-1.7 14.5.9 2.4 1.6 4.2 4 5 7 .1.3.2.7.2 1 .2 1.2.3 2.3.3 3.5-.1 3.5-1.4 7-3.5 10-.3.5-.7.9-1.1 1.4 1.2-1.1 2.3-2.2 3.2-3.5 2.2-3 3.4-6.5 3.6-10 0-1.2-.1-2.4-.3-3.6"/><path id="path110" class="st13" d="M77.6 51s2.2-2.2 2.1-2.2c-2.7-.1-3.9 2.5-4 2.7.6-.3 1.2-.4 1.9-.5"/><path id="path112" class="st13" d="M82.7 54.1c.1.4.2.7.2 1.1 0 .6-.1 1.1-.4 1.6.4-.2 3.6-1.8 2.4-5 .1.2-2.3 2.3-2.2 2.3"/><path id="path114" class="st13" d="M70.3 56c0-1.3 2.3-4.6 3-5.7-3.6 2.3-5.2 5.4-5.2 7.8 0 4.2 3.7 7.6 8.1 7.6 2.1 0 5.9-1.1 8.4-5.1-1.3.9-4.6 2.9-6.4 2.9-4.4 0-7.9-3.3-7.9-7.5"/><path id="polygon116" class="st13" d="M101.2 59.8l.1 16.9 2.7.2-.6-19.3z"/><path id="polygon118" class="st13" d="M85.8 27.5V29l12.8-3.8.9 16.3 2.2-3-.5-16.3z"/><path id="polygon120" class="st13" d="M124.3 33.3l-11.9-11-1.5 3.2 10.6 9.9z"/><path id="path122" class="st13" d="M122.5 53.8l-14.1-4.7-2 2.2 14 5.6c1.6 3 4 5.6 7 7.4 2.9 1.8 6.3 2.9 9.8 3.2v6.9l2.2 1.1.7-10.4-17.6-11.3z"/><path id="path124" class="st13" d="M145.1 51.9c3.5-.8 5.4-2.6 7.2-4.6-1.3 1.1-7.7 2.5-8.8 2.8l-2.1 2.3c.9 0 2.5-.2 3.7-.5"/><path id="path126" class="st13" d="M138.8 27.9c-6.4.8-9.7 6.2-10.2 6.8 2.4-2 5.3-3.5 8.6-4.2 7.9-1.9 14.8.5 19.1 5.8l2.7-2.2c-4.3-5.2-12.3-8.1-20.2-6.2"/><path id="path128" class="st13" d="M160.2 54c.8-.6 2.1-1.3 2.9-2.1l-8.5-7.6c-.7.8-1.2 2.1-2 2.7l7.6 7z"/><path id="path130" class="st13" d="M203.9 74.4c-8.9-7.4-8.4-23.1-4-28.1L196 21.6l-8.6 1.1-.4 2.2h6.5l3.5 22.4c-4.4 5-6.5 11.7-5.1 17.9 1.1 4.8 4.1 8.6 8.3 10.8.4.2.9.4 1.3.6l.1.3 2.6.4c-.1.1.2-2.7-.3-2.9z"/><path id="polygon132" class="st13" d="M169.6 25.2l-.4 2.2h9.8l2.9 15.9 2.2-2.2-2.3-16.8z"/><path id="polygon134" class="st13" d="M186.4 56l-3.2 8.2.8 2.2 4.5-12.5z"/><path id="polygon136" class="st13" d="M177 50.9l-2.2 2.2-2.4 14.8 2.3.8z"/><path id="path138" class="st13" d="M221.1 46.1c1.3.9 2.4 2.1 3.2 3.5.7 1.1 1.1 2.2 1.5 3.6 1.1 4.5-.2 9.3-3 13.1-.3.4-.6.8-.9 1.1 1.1-1 15.1-11.3 1.5-24.8-15-4.9-20.7 4.8-21.2 5.5 1.6-1.3 3.4-2.5 5.4-3.2 5-2 10-1.3 13.5 1.2"/><path id="path140" class="st13" d="M213.6 47.1c0 .1 2.2-2.2 2.2-2.2-2.7.1-4 1.4-3.8 2-.2.2-.3.5-.4.7.5-.3 1.6-.5 2-.5"/><path id="path142" class="st13" d="M218.6 50.5c.1.4.1.7.1 1.1 0 .5-.2 1-.4 1.4.4-.2 3.6-1.2 2.4-4.8.1.2-2.2 2.3-2.1 2.3"/><path id="path144" class="st13" d="M211.5 61.8c3 .1 6.4-1.7 8.8-5-6.1 1.3-12.6-9-12-10-2.3 1.7-4.4 4.9-4.5 7.2-.2 4.2 3.3 7.6 7.7 7.8"/><path id="polygon146" class="st13" d="M245.2 88.5l1.4.9 17.6-52.8-13.2-3-.1 3.1 10.6 2.3z"/><path id="polygon148" class="st13" d="M224.3 27.9l.1 3 14 2.8 5.4 25.6 2.2-2.2-5.2-25.9z"/><path id="polygon150" class="st13" d="M235.1 57.1l-3.9 21.8 2.2.7 3.9-24.7z"/><path id="polygon152" class="st13" d="M53.4 86.9l-6.5-23.8-2.4 1.7 6.1 22.7z"/><path id="path154" class="st13" d="M51.7 51.2c-1.5 1.6-4.9 4.7-6.8 5.9l-1.2-3.7-2.5-8.2-1.6-5.5-1.6 2 1.6 5.5 2.5 8.1 1.2 3.7c2.7-1.5 6.5-4.7 8.4-7.8"/><path id="path156" class="st12" d="M144.5 37.1c-2.1-.8-5-.6-6.6 1.2-.4.4-1.1 1.4-1.3 1.9 1.5-1.2 4.3-1.5 6-.8l1.9-2.3z"/><path id="path158" class="st12" d="M49.9 44.5c-.2-1.2-1.4-2.2-2-2.5-1-.5-2.9-.6-4.2-.3.2.8.5 1.8.6 2.2.5.1 1.4.2 1.9.4.6.3 1.6.9 1.8 2.2.3 1.6.2 3.2-.5 4.4 1.9-1.8 2.8-3.8 2.4-6.4"/><g id="g160" transform="translate(-5.451 -1.686)"><g id="g162"><path id="path164" class="st14" d="M58.6 46.1c-.9-4.8-7.2-7.5-13.5-4.1l1.6 5.5 2.5 8.2 1.2 3.7c4.7-2.9 9.4-6.6 8.2-13.3zm-6.2 7.5c-.7-2.2-2.2-7-2.2-7s-.3-1-.7-2.2c1.3-.2 2.6-.1 3.6.4.6.3 1.6.9 1.8 2.2.6 2.6-.3 4.6-2.5 6.6z"/></g></g><g id="g166" transform="translate(-5.451 -1.686)"><g id="g168"><path id="path170" class="st15" d="M153.2 38.5c-3.5-3.2-8.9-3-12.1.5-3.2 3.5-3 8.9.5 12.1.3.3.6.5.9.7L153.8 39c-.2-.1-.4-.3-.6-.5zm-10.6 9c-1.1-2-.9-4.6.8-6.4 1.6-1.7 4-2.2 6.1-1.4l-6.9 7.8z"/></g></g><path id="polygon172" class="st16" d="M162.8 35.4l-6.2 6 5.9 5.3z"/><path id="path174" class="st17" d="M220.7 48.3c.1.4.1.8.1 1.2-.1 2.4-2.3 4.2-5 4.1-2.7-.1-4.8-2.1-4.7-4.5.1-2.2 2.1-4 4.5-4.1-.5-.1-1-.2-1.5-.2-4.5-.2-8.1 3-8.3 6.9-.2 4.2 3.2 7.7 7.6 7.8 4.5.2 8.1-3 8.3-7.2.3-1.4-.2-2.8-1-4"/><linearGradient id="path183_1_" gradientUnits="userSpaceOnUse" x1="639.706" y1="2062.77" x2="655.635" y2="2062.77" gradientTransform="translate(-569.451 -2006.686)"><stop offset="0" stop-color="#3c5aa6"/><stop offset=".933" stop-color="#2b73b9"/><stop offset="1" stop-color="#2a75bb"/></linearGradient><path id="path183" class="st18" d="M85.1 53.1c0 2.4-2.2 4.3-4.8 4.3-2.7 0-4.8-1.9-4.8-4.3 0-2.2 1.9-4.1 4.4-4.3-.5-.1-1-.1-1.5-.1-4.5 0-8 3.3-8 7.3 0 4.2 3.5 7.5 7.9 7.5 4.5 0 8-3.3 8-7.5 0-1.5-.5-2.8-1.3-4 0 .3.1.7.1 1.1"/><g id="g185" transform="translate(-5.451 -1.686)"><g id="g187"><linearGradient id="path196_1_" gradientUnits="userSpaceOnUse" x1="578.628" y1="2056.257" x2="844.371" y2="2056.257" gradientTransform="translate(-569.451 -2006.686)"><stop offset="0" stop-color="#3c5aa6"/><stop offset=".933" stop-color="#2b73b9"/><stop offset="1" stop-color="#2a75bb"/></linearGradient><path id="path196" class="st19" d="M254 30.6l-2 8.2-1.8-9.1-24.6-5.4.2 13.7 3.7.8-.3 2.5s-.1 0-.1-.1c-4.6-2.4-10.3-2.7-15.6-.6-1.8.7-3.5 1.6-5 2.7l-3.7-23.4h-16.3l-.4 2.7h-17.2l-2 12-1.4-1.8c-4.2-5.1-10.2-7.9-16.9-8.1l14.6-7.8L155 1.7l-18.4 21.2 3.2 3.9c-2.9 1.2-5.4 2.8-7.5 4.8l-15.8-14-5.5 10.5.2-10.2-24.7 7.9.7 13.2 4.2-1.1.6 6.7c-4.8-2.2-10.6-2.1-15.9.2-1.6.7-3.1 1.5-4.4 2.5.9-4.1.7-8.1-.9-11.7-1.8-4.2-5.1-7.8-9-10-2.8-1.9-6.1-3-9.6-3.4-8.5-1.5-18.8 0-28.9 4.3-3.7 1.6-7.2 3.4-10.3 5.4l-3.9 2.5 2.4 4L18.9 51l2.3 3.8 4-2 .6-.3 18.4 41 1.8 3.9 4.1-1.3 9.9-3.2 4.4-1.4-1.1-4.4L58 66.9c1.5-1.1 2.9-2.3 4.2-3.6-.3 2.4-.1 4.9.5 7.2 1.4 4.9 4.6 8.8 9.1 10.9 4.8 2.3 10.7 2.3 16.1 0 2.7-1.2 5.2-2.8 7.2-4.9l.7 8.1 17.4-2.6V66.4l36.3 18V67.1c1.5-.1 2.9-.4 4.4-.7 4-1 7.4-2.3 10.5-4.1l-1.5 9.3 19.6 3.1 1.1-7.1 5.1 9.5 3.1-6 1.1 9.9 22.2 3.9-1.2-7.5c3 .3 6.2-.1 9.3-1.2.7-.3 1.5-.6 2.1-1l-.9 8 14.8 2.1.1 6.1 15.4 4.8 20.1-60.5-20.8-5.1zm-86.8 9l1-1.1-1.2 7.6-3.2-2.9 3.4-3.6zm-13-31.2l5.4 7.3-15.4 7.6-1.1-1.6c0 .1 11.1-13.3 11.1-13.3zM52.3 64.8l6.1 23.6-9.9 3.2L28.1 46c-1.1.6-3.2 1.6-5 2.5L15.7 36c2.9-1.9 6.2-3.5 9.6-5 9.6-4.1 18.8-5.3 26.1-4 2.6.3 5.3 1.1 7.7 2.7 3.3 1.9 5.8 4.5 7.3 7.9 3.6 8.2-2.3 20-14.1 27.2zM98 60.6c-.1 3.5-1.4 7-3.6 10-2.1 2.9-4.9 5.2-8.3 6.7-8.6 3.7-17.2 0-19.5-8.2-2.2-7.9 3-17.3 11.3-20.9 5.3-2.3 10.7-1.7 14.5.9 2.4 1.6 4.2 4 5 7 .1.3.2.7.2 1 .4 1.2.4 2.4.4 3.5zm46.9 16.7l-36.1-18 .1 18.9-9.3 1.3-.7-7.8c2.9-4.9 3.9-10.8 2.4-16.1-.8-2.9-2.3-5.5-4.4-7.5l-1.3-15.9-4.2 1.1-.2-4 15-4.5.9 15.4 11-15.5L129 35l-15.1 15.9 14.2 5.6c1.6 3 4 5.5 7 7.4 2.9 1.8 6.3 2.9 9.8 3.2v10.2zm-18.7-26.2l-5-1.9 4.7-4.5c-.3 2.1-.2 4.2.3 6.4zm39.2 4.8c-3.5 2.9-7.4 4.7-12.6 6-1.1.3-2.3.5-3.3.5-8.3.8-15.2-3-17.8-9.1-.3-.7-.6-1.5-.8-2.3-1.2-5.2-.2-9.8 2.4-13.5.7-1.1 1.6-2 2.6-2.9 2.4-2.2 5.5-3.7 9-4.6 7.9-1.9 14.8.5 19.1 5.7l-15 16c1 .2 2.6-.1 3.8-.4 3.6-.9 5.6-2.8 7.3-4.8l6 5.4 1.8 1.6c-.8.9-1.6 1.7-2.5 2.4zm31.9 21.3L194 55.6l-4.6 11.9-6.9-14.9h-.1l-2.7 17.3-11.5-2 1.6-9.6c.4-.4.9-.8 1.3-1.3l3.7-3.8-3.6-3.3 3.9-23h11.6l2.9 15.9 3.3-18.4h8.3l3.5 22.4c-4.4 5-6.5 11.7-5.1 17.9 1.1 4.8 4.1 8.6 8.3 10.9.4.2.9.4 1.3.6l.4 2.9-12.3-1.9zm28.7-7.1c-1.3.9-2.7 1.7-4.2 2.2-3 1.1-5.9 1.4-8.6.8-1.8-.4-3.5-1.1-5-2.1-2.3-1.7-4-4.1-4.8-7.2-.9-3.7-.1-7.7 1.9-11.2 1-1.7 2.3-3.3 3.8-4.7 1.7-1.5 3.7-2.8 5.8-3.6 5.1-1.9 10.1-1.2 13.6 1.3 1.3.9 2.4 2.1 3.2 3.5.6 1.1 1.1 2.3 1.4 3.6 1.1 4.5-.2 9.3-3 13.1-.9 1.7-2.4 3.1-4.1 4.3zm26 20.4l-8.5-2.5-.7-31.4-4.3 24.2-9.3-1.5.7-7c6.1-5.1 9.3-13.2 7.5-20.6-.8-3.2-2.4-6.1-4.8-8.2l.8-8.2-3.5-.9.1-4.4 16 3.2 5.4 25.5 5.5-22.9 12.2 2.7-17.1 52z"/></g></g><path id="path198" d="M258 85.3h.4c.5 0 .9-.2.9-.7 0-.3-.3-.7-.9-.7h-.4v1.4zm0 2.1h-.6v-3.8c.3-.1.6-.1 1.1-.1.6 0 1 .1 1.2.3.2.2.4.4.4.8 0 .5-.3.8-.7.9.3.1.6.4.6.9.1.6.2.8.2.9h-.6c-.1-.1-.2-.5-.3-1-.1-.5-.3-.7-.8-.7h-.5v1.8zm.7-4.9c-1.5 0-2.7 1.3-2.7 2.9 0 1.6 1.2 2.9 2.8 2.9 1.5 0 2.7-1.3 2.7-2.9-.1-1.6-1.3-2.9-2.8-2.9zm0-.5c1.9 0 3.3 1.5 3.3 3.4s-1.5 3.4-3.4 3.4-3.4-1.5-3.4-3.4c.1-1.9 1.6-3.4 3.5-3.4z"/></svg>


    <svg xmlns="http://www.w3.org/2000/svg" version="1.1" width="52px" height="52px" viewBox="-0.05 -0.6 220.35 245.4"><g><path fill="#0d131a" d="M216.65 121.0 Q220.3 123.0 219.45 126.8 218.65 130.5 215.0 131.8 211.55 133.05 186.8 139.55 L156.9 147.25 153.25 153.7 156.45 188.75 Q159.25 223.85 158.65 239.6 158.6 240.65 157.6 242.35 156.55 244.0 155.7 244.5 L152.05 244.8 Q150.35 244.45 148.8 243.55 147.6 242.8 128.0 215.45 L99.95 176.15 96.0 176.7 Q53.0 216.25 36.75 228.45 34.3 230.3 32.65 228.1 L31.5 225.5 Q33.5 208.3 39.2 169.9 L45.15 130.3 21.6 112.75 Q2.3 98.4 1.35 96.75 0.05 94.5 0.0 92.5 -0.05 89.7 2.65 88.2 3.9 87.5 31.75 79.05 L71.3 67.05 Q83.15 52.55 94.95 38.7 118.1 11.45 127.5 2.7 L129.15 1.05 Q130.55 -0.6 133.8 0.25 137.35 1.2 138.3 4.65 139.0 7.0 150.1 82.65 156.3 86.15 216.65 121.0"/><path fill="#955e0c" d="M212.5 128.8 Q210.15 130.45 187.7 136.5 L154.45 145.0 153.95 145.1 150.6 152.25 150.65 152.55 153.5 184.45 Q156.2 219.8 155.75 239.05 155.75 240.0 155.0 240.35 154.1 240.9 152.45 240.7 151.0 240.55 150.1 240.0 147.5 237.75 100.95 173.15 L100.55 172.6 94.85 173.65 94.65 173.85 Q84.4 183.45 72.25 194.35 48.05 216.2 37.55 224.1 L36.35 224.2 Q35.25 223.85 35.0 223.3 37.1 204.9 42.4 165.9 L47.35 130.0 47.45 129.35 46.95 129.0 Q5.7 96.45 4.05 94.6 3.45 93.95 3.45 93.05 3.45 91.6 4.75 90.55 6.1 89.7 29.5 82.3 49.15 76.05 72.2 69.0 L72.5 68.9 72.75 68.65 Q83.35 55.9 95.65 41.65 120.15 13.25 129.8 4.3 L132.5 4.15 134.35 5.1 Q135.15 5.7 135.3 6.35 135.75 8.2 146.8 83.9 L146.85 84.4 147.35 84.65 Q212.2 121.5 214.6 123.4 L214.75 124.4 Q214.7 125.6 214.0 126.9 213.35 128.25 212.5 128.8"/><path fill="#bc771a" d="M214.6 123.4 L214.75 124.4 214.3 126.15 Q170.8 114.6 125.45 108.9 L98.6 106.1 88.75 105.45 146.8 84.0 146.85 84.4 147.35 84.65 Q212.2 121.5 214.6 123.4"/><path fill="#bc771a" d="M129.8 4.3 Q130.05 4.05 130.8 3.95 108.4 37.1 91.6 70.3 83.2 86.9 79.25 96.85 61.85 94.05 4.0 91.35 L4.75 90.55 Q6.1 89.7 29.5 82.3 49.15 76.05 72.2 69.0 L72.5 68.9 72.75 68.65 Q83.35 55.9 95.65 41.65 120.15 13.25 129.8 4.3"/><path fill="#764800" d="M132.05 3.95 Q133.15 4.25 134.15 5.0 135.15 5.7 135.3 6.35 135.75 8.2 146.8 83.9 L146.85 84.1 Q132.25 89.35 111.8 93.4 L75.95 99.4 Q91.15 65.65 132.05 3.95"/><path fill="#764800" d="M214.5 125.6 Q213.75 128.0 212.5 128.8 210.15 130.45 187.7 136.5 L154.45 145.0 153.95 145.1 150.6 152.25 150.65 152.55 153.5 184.45 Q156.2 219.8 155.75 239.05 155.75 240.0 155.0 240.35 154.15 240.9 152.45 240.7 L131.3 198.5 Q107.6 151.3 94.45 130.75 98.75 127.75 104.05 117.65 108.65 108.95 112.25 108.35 121.3 106.9 155.75 113.3 178.15 117.45 214.5 125.6"/><path fill="#764800" d="M63.3 125.45 Q71.75 139.5 78.85 149.9 87.7 162.95 96.55 173.35 L94.85 173.65 94.65 173.85 Q84.4 183.45 72.25 194.35 48.05 216.2 37.55 224.1 L36.35 224.2 35.5 223.8 Q40.15 204.75 45.5 184.1 56.2 142.95 63.3 125.45"/><path fill="#764800" d="M4.05 94.6 Q3.45 93.95 3.45 93.05 L3.5 92.5 Q3.15 91.4 28.85 93.05 55.35 94.7 71.0 97.05 67.15 105.2 60.4 114.5 53.7 123.75 47.4 129.65 L47.45 129.35 46.95 129.0 Q5.7 96.45 4.05 94.6"/><path fill="#0d131a" d="M128.2 89.4 L147.6 83.1 148.1 84.4 129.55 91.9 128.2 89.4"/><path fill="#0d131a" d="M131.4 2.6 L132.45 3.55 Q130.4 5.85 116.8 27.95 101.85 52.2 96.55 62.95 L94.35 61.9 Q98.2 53.9 111.6 32.1 126.1 8.6 131.4 2.6"/><path fill="#0d131a" d="M215.25 125.3 L214.7 126.6 Q211.35 125.25 174.0 117.65 135.2 109.75 123.7 108.45 L123.5 106.05 Q134.8 107.3 174.15 115.75 211.7 123.85 215.25 125.3"/><path fill="#0d131a" d="M2.0 91.0 Q8.45 90.7 29.0 91.3 L63.55 93.25 62.55 96.05 28.55 93.45 2.1 92.45 2.0 91.0"/><path fill="#0d131a" d="M105.55 148.0 L107.75 146.65 Q114.7 161.95 132.4 198.75 151.7 238.9 153.5 241.05 L152.45 242.0 Q150.4 239.55 130.45 199.35 111.55 161.2 105.55 148.0"/><path fill="#0d131a" d="M54.95 147.1 L57.3 147.85 Q53.15 160.65 44.7 190.55 36.0 221.6 35.85 224.7 L34.45 224.65 Q34.6 221.3 42.85 190.15 51.1 158.9 54.95 147.1"/><path fill="#0d131a" d="M91.3 57.9 Q100.4 58.35 108.45 62.3 116.3 66.2 122.7 73.3 129.3 80.6 132.8 89.2 136.4 98.15 136.4 107.8 L136.05 113.55 Q135.65 118.85 135.25 120.65 135.85 121.8 138.7 125.15 L145.4 132.3 Q158.05 144.6 159.3 147.5 158.35 149.9 154.4 156.05 154.0 156.65 151.85 155.45 147.6 152.95 145.2 151.85 136.15 147.75 131.4 146.35 123.0 143.95 120.7 146.9 118.5 149.75 114.6 152.2 111.6 154.15 106.95 156.15 105.6 156.75 105.25 159.2 105.0 160.75 105.15 164.45 105.4 174.3 102.15 177.15 101.1 178.05 98.9 177.8 L94.4 177.0 Q93.4 176.85 91.75 175.05 L85.9 168.5 80.35 162.35 Q77.0 158.75 76.35 158.6 57.4 154.25 47.7 139.6 38.65 125.9 39.65 106.6 40.7 85.65 56.1 71.25 71.45 56.9 91.3 57.9"/><path fill="#ffe100" d="M120.8 74.8 Q127.45 82.2 130.75 91.6 134.05 101.0 133.5 111.3 133.35 115.45 132.4 119.9 L132.35 120.15 Q132.35 120.8 134.3 123.05 L144.1 133.55 Q155.05 145.05 155.85 146.45 154.5 149.7 152.45 152.9 151.55 152.75 145.9 150.2 135.55 145.5 130.3 144.05 121.2 141.6 118.35 145.3 113.8 151.25 106.25 154.55 104.15 155.45 103.55 158.4 103.2 160.2 103.35 164.5 L103.25 170.1 Q102.9 172.9 101.5 174.15 99.7 175.75 95.5 175.05 94.35 174.8 86.15 165.85 L80.2 159.5 Q77.8 157.15 76.75 156.85 59.9 151.75 50.25 138.15 40.55 124.45 41.45 106.65 42.45 86.35 56.7 72.65 70.9 58.95 89.95 59.9 98.75 60.35 106.75 64.2 114.7 68.05 120.8 74.8"/><path fill="#f9be00" d="M103.3 162.4 L103.35 164.5 103.25 170.1 Q102.9 172.9 101.5 174.15 99.7 175.75 95.5 175.05 94.35 174.8 86.15 165.85 L80.6 159.9 Q90.55 163.15 103.3 162.4"/><path fill="#f9be00" d="M89.95 59.9 L94.35 60.35 Q83.8 62.95 75.5 68.45 66.45 74.45 61.65 82.95 64.0 72.95 70.05 63.65 79.6 59.4 89.95 59.9"/><path fill="#f9be00" d="M89.25 92.7 Q96.95 87.4 107.1 84.95 115.65 82.85 126.6 82.7 130.7 89.55 132.45 97.65 113.45 86.6 89.25 92.7"/><path fill="#f9be00" d="M144.1 133.55 Q155.05 145.05 155.85 146.45 154.5 149.7 152.45 152.9 151.55 152.75 145.9 150.2 135.55 145.5 130.3 144.05 121.2 141.6 118.35 145.3 115.6 148.8 111.95 151.35 114.95 141.4 111.8 132.1 107.9 120.5 95.5 116.75 L114.15 118.8 132.9 121.3 Q134.45 123.45 144.1 133.55"/><path fill="#f9be00" d="M60.4 137.55 Q60.1 130.3 63.45 122.1 63.45 141.5 69.7 154.15 66.5 152.7 63.2 150.6 60.6 142.75 60.4 137.55"/><path fill="#0d131a" d="M65.35 56.7 L67.45 57.0 Q75.9 58.1 76.5 60.2 76.8 61.1 75.9 61.8 73.0 64.25 71.1 67.25 69.95 68.95 68.8 71.75 L67.8 73.8 Q67.25 74.65 66.55 74.8 L62.9 76.6 Q58.5 78.95 56.65 79.7 54.7 80.45 53.8 80.1 53.25 79.85 53.1 79.25 52.55 77.0 52.9 70.75 53.3 63.2 55.25 61.6 57.4 59.8 59.95 58.35 63.5 56.35 65.35 56.7"/><path fill="#ffe100" d="M65.75 59.0 L67.95 59.35 Q73.35 60.05 74.55 60.6 71.5 63.15 69.5 66.4 68.4 68.15 67.15 71.1 L66.1 73.1 Q65.35 73.3 62.1 75.05 55.85 78.25 54.8 78.4 L54.7 76.75 Q54.7 73.0 55.25 69.2 55.95 64.5 57.1 63.5 59.4 61.6 61.9 60.25 64.65 58.8 65.75 59.0"/><path fill="#0d131a" d="M44.75 100.75 Q45.25 100.6 45.8 101.05 46.45 101.65 46.5 103.85 46.6 105.8 46.15 110.8 L45.95 114.85 Q46.1 115.85 44.65 118.85 L43.25 122.25 Q42.6 124.2 42.9 125.35 43.25 126.7 42.2 127.1 40.8 127.75 36.8 125.1 33.3 122.75 32.35 121.35 31.3 119.8 31.6 115.75 31.85 112.65 32.65 109.95 33.4 107.5 38.35 104.1 42.8 101.05 44.75 100.75"/><path fill="#ffe100" d="M41.15 125.4 Q39.9 125.0 37.2 123.2 34.5 121.35 33.8 120.35 33.3 119.65 33.3 117.5 33.3 114.15 34.35 110.45 34.9 108.7 38.95 105.85 42.55 103.4 44.6 102.65 L44.75 104.3 44.4 110.65 44.15 114.45 44.15 115.15 44.2 115.2 Q44.2 115.8 43.05 118.1 41.05 122.55 41.05 124.55 L41.15 125.4"/><path fill="#0d131a" d="M122.6 108.2 Q147.7 114.2 148.7 117.6 149.45 120.05 148.4 125.65 147.45 130.85 146.35 132.45 145.65 133.4 143.25 133.35 138.2 133.2 124.95 129.85 106.65 125.2 97.75 121.05 L95.95 120.1 Q95.25 119.65 95.35 119.0 L95.55 116.1 Q95.85 110.15 96.25 107.65 96.7 104.75 97.5 104.05 L98.5 103.75 106.35 104.95 Q115.05 106.4 122.6 108.2"/><path fill="#ffe100" d="M145.0 131.25 Q142.05 131.6 121.0 126.1 100.0 120.65 97.15 118.85 L97.3 116.2 Q97.85 106.85 98.55 105.6 106.45 107.05 123.9 111.25 145.5 116.45 147.0 118.2 L147.2 120.15 Q147.2 122.75 146.45 126.45 145.7 129.95 145.0 131.25"/><path fill="#0d131a" d="M49.65 124.4 Q50.05 123.95 50.65 123.95 51.6 124.0 53.1 125.55 L57.45 130.95 60.05 134.1 Q60.6 134.55 60.75 135.55 L60.85 137.85 Q60.8 140.85 61.1 142.9 61.55 146.4 63.1 149.8 63.5 150.45 62.8 151.25 61.6 152.75 56.4 154.7 51.2 156.7 49.5 156.3 48.15 155.95 46.65 153.6 L43.8 147.85 42.95 146.0 Q41.7 143.45 44.25 135.65 46.7 128.0 49.65 124.4"/><path fill="#ffe100" d="M58.9 135.45 L59.05 137.05 59.05 138.9 Q59.05 144.95 61.35 150.2 60.5 151.25 55.8 153.05 51.1 154.85 49.9 154.55 49.05 154.35 47.6 151.65 L45.4 147.15 44.55 145.25 44.35 143.95 Q44.35 140.85 46.4 135.0 48.5 128.95 50.8 125.9 51.9 126.6 56.05 132.0 L58.9 135.5 58.9 135.45"/><path fill="#0d131a" d="M87.3 77.8 Q88.05 75.4 93.6 71.65 99.0 67.95 106.25 64.8 124.25 57.0 131.1 60.75 133.05 61.8 136.2 65.2 139.6 68.9 140.2 71.15 140.75 73.05 138.65 77.8 136.8 82.15 134.5 85.2 132.35 88.05 130.8 88.05 L127.8 88.0 Q117.9 87.85 112.55 88.1 102.05 88.5 96.9 90.15 92.3 91.6 89.65 88.55 88.3 86.95 87.65 84.15 87.15 82.0 87.15 79.75 87.15 78.4 87.3 77.8"/><path fill="#ffe100" d="M106.95 67.4 Q123.9 59.8 130.45 62.4 131.9 62.95 134.85 66.25 137.9 69.65 138.45 71.6 138.8 72.85 137.1 76.95 135.3 81.15 133.05 84.15 L131.35 86.0 130.8 86.25 127.8 86.25 Q104.75 85.8 96.4 88.45 93.25 89.45 91.45 87.85 90.05 86.55 89.35 83.75 88.9 81.8 88.9 79.6 L88.95 78.5 Q89.85 76.9 95.05 73.65 100.35 70.35 106.95 67.4"/><path fill="#0d131a" d="M73.1 135.95 L73.2 135.15 Q73.35 134.5 75.25 133.55 76.8 132.7 78.3 132.25 82.9 130.9 85.3 133.0 102.9 148.4 110.85 152.6 111.3 152.9 111.55 153.55 111.9 154.75 112.05 157.8 L111.85 164.4 Q111.3 170.8 109.5 171.95 107.3 173.4 104.8 174.2 101.6 175.25 99.75 174.6 92.7 172.0 82.65 156.65 73.1 142.0 73.1 135.95"/><path fill="#ffe100" d="M78.9 133.95 Q82.45 132.85 84.1 134.35 101.85 149.75 109.8 154.05 110.25 155.05 110.25 159.25 110.25 163.15 109.85 166.3 109.4 169.95 108.55 170.45 106.4 171.8 104.1 172.55 101.55 173.4 100.35 172.95 93.6 170.45 83.9 155.2 74.85 141.0 74.85 136.1 L74.85 135.8 Q76.45 134.7 78.9 133.95"/><path fill="#f9be00" d="M67.95 59.35 Q73.35 60.05 74.55 60.6 71.5 63.15 69.5 66.4 68.4 68.15 67.15 71.1 L66.1 73.1 Q65.5 73.25 62.15 75.0 62.15 68.0 64.65 59.1 L65.75 59.0 67.95 59.35"/><path fill="#f9be00" d="M44.3 111.35 L44.15 115.15 44.2 115.2 Q44.2 115.8 43.05 118.1 41.05 122.55 41.05 124.55 L41.15 125.4 Q39.9 125.0 37.2 123.2 34.5 121.35 33.8 120.35 L33.55 119.7 Q38.0 114.1 44.3 111.35"/><path fill="#f9be00" d="M59.05 137.05 L59.05 138.9 Q59.05 144.95 61.35 150.2 60.5 151.25 55.8 153.05 51.1 154.85 49.9 154.55 L49.8 154.5 Q49.85 146.85 51.05 141.2 52.1 136.1 54.7 130.25 L56.05 132.0 58.9 135.45 59.05 137.05"/><path fill="#f9be00" d="M92.45 88.5 Q101.8 81.35 114.3 77.2 125.7 73.4 138.5 72.45 138.25 74.4 136.7 77.9 135.0 81.6 133.05 84.15 L131.35 86.0 130.8 86.25 127.8 86.25 Q104.75 85.8 96.4 88.45 94.05 89.2 92.45 88.5"/><path fill="#f9be00" d="M84.95 134.4 L97.6 145.25 Q105.5 151.7 109.8 154.05 110.25 155.05 110.25 159.25 110.25 166.25 109.25 169.25 101.45 162.85 94.85 153.45 88.1 143.85 84.95 134.4"/><path fill="#0d131a" d="M94.35 85.95 Q102.9 79.6 116.85 75.2 129.45 71.25 138.45 71.15 L138.5 72.05 Q132.55 72.4 119.25 76.5 102.85 81.5 95.0 87.35 L94.35 85.95"/><path fill="#0d131a" d="M82.1 132.65 L83.75 132.2 Q85.4 137.9 92.5 149.35 101.55 163.8 109.8 169.35 L109.3 170.1 Q100.9 164.45 91.4 149.95 83.65 138.05 82.1 132.65"/><path fill="#0d131a" d="M49.5 141.7 Q50.75 133.15 54.05 127.75 L55.4 128.35 Q53.15 130.85 51.3 140.45 49.35 150.2 50.35 155.35 L49.55 155.55 Q48.4 149.6 49.5 141.7"/><path fill="#0d131a" d="M61.4 75.0 Q60.8 71.9 62.45 65.85 63.55 61.85 65.1 58.1 L65.9 58.45 Q64.7 61.4 63.65 66.0 62.35 71.9 62.95 74.95 L61.4 75.0"/><path fill="#0d131a" d="M44.1 112.2 L44.35 113.0 Q41.5 114.0 38.35 116.45 34.95 119.05 34.0 121.3 L32.75 120.5 Q33.8 117.95 37.85 115.3 41.05 113.25 44.1 112.2"/><path fill="#0d131a" d="M50.85 80.4 Q60.45 71.05 72.9 71.9 85.9 72.8 94.4 83.2 102.85 93.55 102.15 107.55 101.45 121.4 91.7 130.95 82.0 140.45 69.5 139.85 64.1 139.55 58.9 136.8 53.95 134.2 49.9 129.75 45.25 124.65 42.75 117.75 40.1 110.65 40.45 103.6 41.15 89.75 50.85 80.4"/><path fill="#ffe100" d="M72.8 73.35 Q84.65 73.95 92.55 83.85 100.5 93.7 99.8 107.05 99.15 120.4 90.25 129.45 81.4 138.45 69.55 137.85 64.3 137.6 59.5 135.25 54.7 132.9 51.0 128.8 46.6 124.0 44.4 117.5 42.2 111.05 42.55 104.15 43.25 90.8 52.1 81.8 61.0 72.75 72.8 73.35"/><path fill="#0d131a" d="M87.8 84.9 Q91.95 89.5 93.75 94.15 95.8 99.5 95.4 106.35 95.0 113.25 92.5 118.3 90.25 122.75 85.75 126.8 81.85 130.35 76.9 132.15 71.85 134.0 66.65 133.75 55.3 133.2 47.2 123.9 39.0 114.6 39.6 102.65 40.2 90.95 49.1 83.15 57.9 75.5 69.55 76.05 74.75 76.3 79.55 78.65 84.3 81.0 87.8 84.9"/><path fill="#ba0031" d="M91.65 95.3 Q93.4 100.5 93.1 106.25 92.85 111.95 90.55 116.9 88.3 121.9 84.3 125.45 80.7 128.75 76.15 130.35 71.65 131.95 66.75 131.7 56.2 131.2 49.1 122.8 42.05 114.45 42.6 103.2 43.15 92.1 50.95 84.85 58.7 77.6 69.45 78.1 74.3 78.35 78.6 80.4 82.95 82.45 86.25 86.1 89.85 90.1 91.65 95.3"/><path fill="#d7063a" d="M76.15 130.35 Q71.65 131.95 66.75 131.7 L64.3 131.45 Q62.55 128.25 65.1 122.5 67.4 117.3 72.5 111.65 77.45 106.1 82.85 102.5 88.65 98.7 92.55 98.75 93.3 102.45 93.1 106.25 92.85 111.95 90.55 116.9 88.3 121.9 84.3 125.45 80.7 128.75 76.15 130.35"/><path fill="#990024" d="M50.95 84.85 Q58.7 77.6 69.45 78.1 72.55 78.25 75.4 79.15 79.25 93.65 70.55 107.1 61.85 120.5 48.05 121.5 45.2 117.65 43.8 113.05 42.35 108.3 42.6 103.2 43.15 92.1 50.95 84.85"/><path fill="#e9988e" d="M65.45 90.9 Q66.3 95.45 63.95 100.15 61.6 104.85 57.45 106.95 53.35 109.05 49.8 107.3 46.25 105.55 45.45 101.0 44.6 96.4 46.9 91.7 49.25 87.0 53.4 84.95 57.55 82.85 61.05 84.6 64.6 86.35 65.45 90.9"/><path fill="#ffffff" d="M53.35 106.35 Q53.35 108.7 52.1 110.3 50.85 111.95 49.1 111.95 47.3 111.95 46.05 110.3 44.8 108.7 44.8 106.35 44.8 104.05 46.05 102.45 47.3 100.8 49.1 100.8 50.85 100.8 52.1 102.45 53.35 104.05 53.35 106.35"/></g></svg>

